<svg width="80" height="72" viewBox="0 0 80 72" fill="none" xmlns="http://www.w3.org/2000/svg">
<path fill-rule="evenodd" clip-rule="evenodd" d="M13.3877 39.8366L26.6952 31.8853L13.3877 55.7391V39.8366Z" fill="#FF0000"/>
<path fill-rule="evenodd" clip-rule="evenodd" d="M40.0018 39.8366V55.7391L26.6944 47.7878L26.6943 31.8853L40.0018 39.8366Z" fill="#8B0000"/>
<path fill-rule="evenodd" clip-rule="evenodd" d="M53.3084 31.8853L40.001 55.7391V39.8366L53.3084 31.8853Z" fill="#FF0000"/>
<path fill-rule="evenodd" clip-rule="evenodd" d="M53.3084 31.8853V47.7878L40.001 55.7391L53.3084 31.8853Z" fill="#CF0000"/>
<path fill-rule="evenodd" clip-rule="evenodd" d="M53.3086 31.8853L66.6161 39.8366V55.7391L53.3086 47.7878V31.8853Z" fill="#8B0000"/>
<path fill-rule="evenodd" clip-rule="evenodd" d="M26.6952 15.9829L13.3877 23.9342L26.6952 31.8854L40.0026 23.9342L26.6952 15.9829Z" fill="#D8D8D8"/>
<path fill-rule="evenodd" clip-rule="evenodd" d="M40.0018 23.9341L26.6943 31.8854L40.0018 39.8366L53.3093 31.8854L40.0018 23.9341Z" fill="#D8D8D8"/>
<path fill-rule="evenodd" clip-rule="evenodd" d="M40.002 23.9342L53.3094 15.9829L66.6169 23.9342L53.3094 31.8854L40.002 23.9342Z" fill="#D8D8D8"/>
<path fill-rule="evenodd" clip-rule="evenodd" d="M13.3877 23.9341L26.6952 31.8854L13.3877 39.8366V23.9341Z" fill="#474747"/>
<path fill-rule="evenodd" clip-rule="evenodd" d="M66.6161 23.9341V39.8366L53.3086 31.8854L66.6161 23.9341Z" fill="#ABABAB"/>
<path fill-rule="evenodd" clip-rule="evenodd" d="M26.6951 31.8853L26.6952 47.7878L13.3877 55.7391L26.6951 31.8853Z" fill="#CF0000"/>
</svg>
